<svg xmlns="http://www.w3.org/2000/svg" viewBox="0 0 211.36 83.13"><g id="Layer_2" data-name="Layer 2"><g id="Layer_1-2" data-name="Layer 1"><path d="M38.6,54.32c-2.47,3.14-6.73,5.84-12.86,8.08C23,63.45,17.88,64.94,10.55,67a36.23,36.23,0,0,1-5,1.12,2.19,2.19,0,0,1-1.35-.59,2,2,0,0,1-.9-1.65A2.33,2.33,0,0,1,5,63.3l3.52-.9c0-.45,0-4.86.07-13.17V33.45c0-3.15.08-8.16.3-15.19l-4,.37c-1.8,0-2.7-.74-2.7-2.32a2.09,2.09,0,0,1,.68-1.87,5.22,5.22,0,0,1,2.32-.59c9.2-.75,15.33-1.13,18.33-1.13a17.92,17.92,0,0,1,8.23,1.72,7.56,7.56,0,0,1,4.19,7c0,4.78-6.06,10.47-18.11,17.2a79.08,79.08,0,0,1,13.54,1.5c5.84,1.57,8.83,4.26,8.83,8.08A10,10,0,0,1,38.6,54.32ZM26.71,44,13.09,42.8V61.13c15-3.82,22.45-7.71,22.45-11.75C35.54,46.39,32.54,44.59,26.71,44ZM23,17.51c-3.44,0-6.59.15-9.43.3-.15,3.44-.22,6.66-.22,9.58v8.45c11.82-5.91,17.73-10.62,17.73-14.06Q31.05,17.51,23,17.51Z" fill="#001f54"/><path d="M69.43,66.66q-8.76,0-12.57-8.3a8.94,8.94,0,0,1-2.09.22,11.4,11.4,0,0,1-6.21-1.42c-1.87-1-2.77-2.17-2.77-3.36,0-1.65.75-2.47,2.24-2.47a8.42,8.42,0,0,1,2.25,1.34,6.85,6.85,0,0,0,3.81,1.2,9.79,9.79,0,0,0,1.43-.07,18,18,0,0,1-.3-3.45,22,22,0,0,1,2.69-10.47c2-3.81,4.56-5.76,7.63-5.76,1.87,0,3.74,1.05,5.69,3a7.6,7.6,0,0,1,2.09,5.16c0,3-1.27,5.84-3.74,8.68A22.46,22.46,0,0,1,61.28,57c1.49,3.15,3.81,4.72,7.1,4.72a15.62,15.62,0,0,0,3.15-.38c1.34-.15,2.17-.22,2.54-.22a1.94,1.94,0,0,1,1.5.82,2.84,2.84,0,0,1,.67,1.72C76.24,65.62,73.92,66.66,69.43,66.66ZM67.71,40.18a4,4,0,0,0-2.47-1c-1.49,0-2.77,1.2-3.81,3.44a16.61,16.61,0,0,0-1.58,7,21.82,21.82,0,0,0,.23,3,18.32,18.32,0,0,0,6.21-4.34,7.88,7.88,0,0,0,2.62-5.61A3.53,3.53,0,0,0,67.71,40.18Z" fill="#001f54"/><path d="M99.58,38.76a11.45,11.45,0,0,1-2-.15c-.9-.08-1.57-.15-2-.15-2.54,0-3.74,1.12-3.74,3.29a15.17,15.17,0,0,0,1.27,4.42c.75,1.79,1.42,3.59,2.1,5.38,1.57,4.57,2.39,7.78,2.39,9.73a6,6,0,0,1-3.14,5.53,14.47,14.47,0,0,1-7,1.5c-4.64,0-7-.9-7-2.54,0-1.87.6-2.85,1.87-2.85.3,0,1,.08,2.4.23a17.71,17.71,0,0,0,2.92.3c3.59,0,5.38-1.12,5.38-3.52,0-1-1.12-4.71-3.29-10.85-.52-1.34-1-2.77-1.65-4.26a11.78,11.78,0,0,1-.74-4.12c0-3.29,1.64-5.53,5.08-6.8.45-1.2,1.8-1.8,3.89-1.8a13.18,13.18,0,0,1,3.3.6c.67.22,1.19,1,1.57,2.32a12.22,12.22,0,0,0,.45,1.57C101.53,38.08,100.85,38.76,99.58,38.76Z" fill="#001f54"/><path d="M130.11,40.85h-1.05a2.84,2.84,0,0,1-1.72-1c-.75,0-2.25,0-4.64-.08s-4-.07-4.41-.07c-1.72,7.55-2.62,11.52-2.62,11.89a64.24,64.24,0,0,0-1.42,12.12,2.81,2.81,0,0,1,1,2.25,2.08,2.08,0,0,1-.82,1.57,2.92,2.92,0,0,1-1.65.75c-1.94,0-2.84-1.88-2.84-5.47a61.88,61.88,0,0,1,1.42-10.84l2.4-12.12c-2.4,0-3.59-.83-3.59-2.62,0-1.57,1.57-2.4,4.71-2.4,1-4.41,2.69-10.92,5.09-19.6.37-1.27,1-1.94,1.94-1.94,1.65,0,2.47.89,2.47,2.62a4.29,4.29,0,0,1-.45,1.57A36.82,36.82,0,0,0,122.4,23c-1.2,4.64-2.17,8.53-2.84,11.75h3.06c1.8.07,2.92.07,3.52.07,3.74,0,5.61,1.13,5.61,3.22A4.39,4.39,0,0,1,130.11,40.85Z" fill="#001f54"/><path d="M144,44.82c-1.72,7-2.54,12.49-2.54,16.38a5.12,5.12,0,0,1,1.49,3.44c0,1-.52,1.57-1.42,1.57-1.2,0-2.24-1-3.22-2.84a12.67,12.67,0,0,1-1.12-5.76c0-1.94,1-8,3.07-18.33a15.31,15.31,0,0,1-.23-1.72,2,2,0,0,1,1.13-1.72c2.76.15,4.18,1.5,4.18,3.89C144.92,41.23,144.47,42.87,144,44.82ZM146.87,16c-2.92-.53-4.34-2.1-4.34-4.72,0-.45-.08-.9-.08-1.42.15-1.65,1.2-2.77,3.14-3.44,2.47.3,3.74,1.94,3.74,5.09Q149.33,15.79,146.87,16Z" fill="#001f54"/><path d="M176.94,66.66q-8.74,0-12.57-8.3a8.88,8.88,0,0,1-2.09.22,11.43,11.43,0,0,1-6.21-1.42c-1.87-1-2.77-2.17-2.77-3.36,0-1.65.75-2.47,2.25-2.47a8.62,8.62,0,0,1,2.24,1.34,6.86,6.86,0,0,0,3.82,1.2A9.72,9.72,0,0,0,163,53.8a18,18,0,0,1-.3-3.45,22,22,0,0,1,2.69-10.47c2-3.81,4.56-5.76,7.63-5.76,1.87,0,3.74,1.05,5.69,3a7.6,7.6,0,0,1,2.09,5.16c0,3-1.27,5.84-3.74,8.68a22.46,22.46,0,0,1-8.3,6.06c1.49,3.15,3.81,4.72,7.1,4.72a15.55,15.55,0,0,0,3.15-.38c1.34-.15,2.17-.22,2.54-.22a1.94,1.94,0,0,1,1.5.82,2.78,2.78,0,0,1,.67,1.72C183.75,65.62,181.43,66.66,176.94,66.66Zm-1.72-26.48a4,4,0,0,0-2.47-1c-1.49,0-2.77,1.2-3.81,3.44a16.6,16.6,0,0,0-1.57,7,21.72,21.72,0,0,0,.22,3,18.32,18.32,0,0,0,6.21-4.34,7.88,7.88,0,0,0,2.62-5.61A3.53,3.53,0,0,0,175.22,40.18Z" fill="#001f54"/><path d="M207.09,38.76a11.45,11.45,0,0,1-2-.15c-.89-.08-1.57-.15-2-.15-2.54,0-3.74,1.12-3.74,3.29a15.52,15.52,0,0,0,1.27,4.42c.75,1.79,1.43,3.59,2.1,5.38,1.57,4.57,2.39,7.78,2.39,9.73a6,6,0,0,1-3.14,5.53,14.42,14.42,0,0,1-7,1.5c-4.64,0-6.95-.9-6.95-2.54,0-1.87.59-2.85,1.87-2.85.3,0,1,.08,2.39.23a17.71,17.71,0,0,0,2.92.3c3.59,0,5.38-1.12,5.38-3.52,0-1-1.12-4.71-3.29-10.85-.52-1.34-1-2.77-1.64-4.26a11.57,11.57,0,0,1-.75-4.12c0-3.29,1.64-5.53,5.09-6.8.44-1.2,1.79-1.8,3.89-1.8a13.19,13.19,0,0,1,3.29.6c.67.22,1.2,1,1.57,2.32a12.22,12.22,0,0,0,.45,1.57C209,38.08,208.37,38.76,207.09,38.76Z" fill="#001f54"/></g></g></svg>